<?xml version="1.0" encoding="UTF-8" standalone="no"?>
<!-- Created with Inkscape (http://www.inkscape.org/) -->

<svg
   xmlns:dc="http://purl.org/dc/elements/1.1/"
   xmlns:cc="http://creativecommons.org/ns#"
   xmlns:rdf="http://www.w3.org/1999/02/22-rdf-syntax-ns#"
   xmlns:svg="http://www.w3.org/2000/svg"
   xmlns="http://www.w3.org/2000/svg"
   xmlns:sodipodi="http://sodipodi.sourceforge.net/DTD/sodipodi-0.dtd"
   xmlns:inkscape="http://www.inkscape.org/namespaces/inkscape"
   width="210mm"
   height="297mm"
   viewBox="0 0 210 297"
   version="1.1"
   id="svg937"
   inkscape:version="0.92.2 (5c3e80d, 2017-08-06)"
   sodipodi:docname="honeycomb.svg">
  <defs
     id="defs931">
    <linearGradient
       gradientUnits="userSpaceOnUse"
       y2="223.424"
       x2="278.50668"
       y1="16.1798"
       x1="157.39613"
       id="a"
       gradientTransform="scale(0.8405543,1.1896911)">
      <stop
         id="stop882"
         offset="0" />
      <stop
         id="stop884"
         stop-color="#166d3b"
         offset="1" />
    </linearGradient>
  </defs>
  <sodipodi:namedview
     id="base"
     pagecolor="#ffffff"
     bordercolor="#666666"
     borderopacity="1.0"
     inkscape:pageopacity="0.0"
     inkscape:pageshadow="2"
     inkscape:zoom="0.7"
     inkscape:cx="425.00331"
     inkscape:cy="831.18334"
     inkscape:document-units="mm"
     inkscape:current-layer="layer1"
     showgrid="false"
     inkscape:window-width="1920"
     inkscape:window-height="1017"
     inkscape:window-x="-8"
     inkscape:window-y="-8"
     inkscape:window-maximized="1" />
  <metadata
     id="metadata934">
    <rdf:RDF>
      <cc:Work
         rdf:about="">
        <dc:format>image/svg+xml</dc:format>
        <dc:type
           rdf:resource="http://purl.org/dc/dcmitype/StillImage" />
        <dc:title></dc:title>
      </cc:Work>
    </rdf:RDF>
  </metadata>
  <g
     inkscape:label="Layer 1"
     inkscape:groupmode="layer"
     id="layer1">
    <rect
       style="opacity:1;fill:#6c5353;fill-opacity:1;fill-rule:evenodd;stroke:none;stroke-width:0.96399999;stroke-linecap:round;stroke-linejoin:miter;stroke-miterlimit:4;stroke-dasharray:none;stroke-dashoffset:0;stroke-opacity:1"
       id="rect1586"
       width="483.05356"
       height="136.4494"
       x="-269.5831"
       y="84.916496" />
    <rect
       style="opacity:1;fill:#ffffff;fill-opacity:1;fill-rule:evenodd;stroke:none;stroke-width:5.66063309;stroke-linecap:round;stroke-linejoin:miter;stroke-miterlimit:4;stroke-dasharray:none;stroke-dashoffset:0;stroke-opacity:1"
       id="rect1584"
       width="361.15625"
       height="26.458334"
       x="-170.55296"
       y="140.6772" />
    <path
       inkscape:connector-curvature="0"
       style="opacity:1;fill:none;fill-opacity:1;fill-rule:evenodd;stroke:#ffb767;stroke-width:0.16100001;stroke-linecap:round;stroke-linejoin:miter;stroke-miterlimit:4;stroke-dasharray:none;stroke-dashoffset:0;stroke-opacity:1"
       id="path3103-3-7"
       d="m 186.79923,169.50984 -2.46906,-0.66159 -0.66157,-2.46905 1.80747,-1.80747 2.46905,0.66158 0.66158,2.46905 z" />
    <path
       inkscape:connector-curvature="0"
       style="opacity:1;fill:none;fill-opacity:1;fill-rule:evenodd;stroke:#ffb767;stroke-width:0.16100001;stroke-linecap:round;stroke-linejoin:miter;stroke-miterlimit:4;stroke-dasharray:none;stroke-dashoffset:0;stroke-opacity:1"
       id="path3103-3-7-2"
       d="m 182.5227,170.65572 -2.46905,-0.66157 -0.66158,-2.46906 1.80747,-1.80747 2.46905,0.66158 0.66158,2.46905 z" />
    <path
       inkscape:connector-curvature="0"
       style="opacity:1;fill:none;fill-opacity:1;fill-rule:evenodd;stroke:#ffb767;stroke-width:0.16100001;stroke-linecap:round;stroke-linejoin:miter;stroke-miterlimit:4;stroke-dasharray:none;stroke-dashoffset:0;stroke-opacity:1"
       id="path3103-3-7-21"
       d="m 191.07575,168.36395 -2.46905,-0.66159 -0.66158,-2.46904 1.80747,-1.80747 2.46905,0.66157 0.66159,2.46906 z" />
    <path
       inkscape:connector-curvature="0"
       style="opacity:1;fill:none;fill-opacity:1;fill-rule:evenodd;stroke:#ffb767;stroke-width:0.16100001;stroke-linecap:round;stroke-linejoin:miter;stroke-miterlimit:4;stroke-dasharray:none;stroke-dashoffset:0;stroke-opacity:1"
       id="path3103-3-7-1"
       d="m 173.96527,172.91244 -2.46467,-0.62652 -0.66158,-2.46905 1.80747,-1.80748 2.46905,0.66159 0.66158,2.46905 z" />
    <path
       inkscape:connector-curvature="0"
       style="opacity:1;fill:none;fill-opacity:1;fill-rule:evenodd;stroke:#ffb767;stroke-width:0.16100001;stroke-linecap:round;stroke-linejoin:miter;stroke-miterlimit:4;stroke-dasharray:none;stroke-dashoffset:0;stroke-opacity:1"
       id="path3103-3-7-21-8"
       d="m 178.24618,171.80161 -2.46906,-0.66158 -0.66158,-2.46905 1.80748,-1.80747 2.46904,0.66157 0.66159,2.46906 z" />
    <path
       inkscape:connector-curvature="0"
       style="opacity:1;fill:none;fill-opacity:1;fill-rule:evenodd;stroke:#ffb767;stroke-width:0.16100001;stroke-linecap:round;stroke-linejoin:miter;stroke-miterlimit:4;stroke-dasharray:none;stroke-dashoffset:0;stroke-opacity:1"
       id="path3103-3-7-5"
       d="m 175.11554,168.67097 -2.46906,-0.66158 -0.66157,-2.46905 1.80747,-1.80747 2.46905,0.66158 0.66158,2.46905 z" />
    <path
       inkscape:connector-curvature="0"
       style="opacity:1;fill:none;fill-opacity:1;fill-rule:evenodd;stroke:#ffb767;stroke-width:0.16100001;stroke-linecap:round;stroke-linejoin:miter;stroke-miterlimit:4;stroke-dasharray:none;stroke-dashoffset:0;stroke-opacity:1"
       id="path3103-3-7-2-9"
       d="m 170.83901,169.81684 -2.46905,-0.66158 -0.096,-0.35831 -0.0412,-0.15381 -0.52435,-1.95693 1.80747,-1.80747 2.46905,0.66158 0.66158,2.46905 z" />
    <path
       inkscape:connector-curvature="0"
       style="opacity:1;fill:none;fill-opacity:1;fill-rule:evenodd;stroke:#ffb767;stroke-width:0.16100001;stroke-linecap:round;stroke-linejoin:miter;stroke-miterlimit:4;stroke-dasharray:none;stroke-dashoffset:0;stroke-opacity:1"
       id="path3103-3-7-21-9"
       d="m 179.39206,167.52508 -2.46905,-0.66157 -0.66158,-2.46906 1.80747,-1.80747 2.46906,0.66158 0.66157,2.46905 z" />
    <path
       inkscape:connector-curvature="0"
       style="opacity:1;fill:none;fill-opacity:1;fill-rule:evenodd;stroke:#ffb767;stroke-width:0.16100001;stroke-linecap:round;stroke-linejoin:miter;stroke-miterlimit:4;stroke-dasharray:none;stroke-dashoffset:0;stroke-opacity:1"
       id="path3103-3-7-24"
       d="m 187.94512,165.23331 -2.46906,-0.66158 -0.66158,-2.46905 1.80747,-1.80747 2.46906,0.66157 0.66158,2.46906 z" />
    <path
       inkscape:connector-curvature="0"
       style="opacity:1;fill:none;fill-opacity:1;fill-rule:evenodd;stroke:#ffb767;stroke-width:0.16100001;stroke-linecap:round;stroke-linejoin:miter;stroke-miterlimit:4;stroke-dasharray:none;stroke-dashoffset:0;stroke-opacity:1"
       id="path3103-3-7-2-7"
       d="m 183.66859,166.3792 -2.46906,-0.66158 -0.66157,-2.46906 1.80747,-1.80747 2.46905,0.66158 0.66158,2.46906 z" />
    <path
       inkscape:connector-curvature="0"
       style="opacity:1;fill:none;fill-opacity:1;fill-rule:evenodd;stroke:#ffb767;stroke-width:0.16100001;stroke-linecap:round;stroke-linejoin:miter;stroke-miterlimit:4;stroke-dasharray:none;stroke-dashoffset:0;stroke-opacity:1"
       id="path3103-3-7-21-91"
       d="m 192.22164,164.08742 -2.46905,-0.66158 -0.66158,-2.46905 1.80747,-1.80747 2.46906,0.66158 0.66157,2.46905 z" />
    <path
       inkscape:connector-curvature="0"
       style="opacity:1;fill:none;fill-opacity:1;fill-rule:evenodd;stroke:#ffb767;stroke-width:0.16100001;stroke-linecap:round;stroke-linejoin:miter;stroke-miterlimit:4;stroke-dasharray:none;stroke-dashoffset:0;stroke-opacity:1"
       id="path3103-3-7-23"
       d="m 189.091,160.95678 -2.46905,-0.66158 -0.66158,-2.46905 1.80747,-1.80747 2.46906,0.66158 0.66157,2.46905 z" />
    <path
       inkscape:connector-curvature="0"
       style="opacity:1;fill:none;fill-opacity:1;fill-rule:evenodd;stroke:#ffb767;stroke-width:0.16100001;stroke-linecap:round;stroke-linejoin:miter;stroke-miterlimit:4;stroke-dasharray:none;stroke-dashoffset:0;stroke-opacity:1"
       id="path3103-3-7-2-1"
       d="m 184.81448,162.10267 -2.46905,-0.66158 -0.66158,-2.46905 1.80747,-1.80747 2.46905,0.66157 0.66158,2.46906 z" />
    <path
       inkscape:connector-curvature="0"
       style="opacity:1;fill:none;fill-opacity:1;fill-rule:evenodd;stroke:#ffb767;stroke-width:0.16100001;stroke-linecap:round;stroke-linejoin:miter;stroke-miterlimit:4;stroke-dasharray:none;stroke-dashoffset:0;stroke-opacity:1"
       id="path3103-3-7-21-7"
       d="m 190.23689,156.68026 -2.46905,-0.66159 -0.66158,-2.46904 1.80747,-1.80748 2.46905,0.66158 0.66158,2.46906 z" />
    <path
       inkscape:connector-curvature="0"
       style="opacity:1;fill:none;fill-opacity:1;fill-rule:evenodd;stroke:#ffb767;stroke-width:0.16100001;stroke-linecap:round;stroke-linejoin:miter;stroke-miterlimit:4;stroke-dasharray:none;stroke-dashoffset:0;stroke-opacity:1"
       id="path3103-3-7-2-5"
       d="m 171.9849,165.54033 -2.46905,-0.66157 -0.66158,-2.46906 1.80747,-1.80747 2.46905,0.66158 0.66158,2.46905 z" />
    <path
       inkscape:connector-curvature="0"
       style="opacity:1;fill:none;fill-opacity:1;fill-rule:evenodd;stroke:#ffb767;stroke-width:0.16100001;stroke-linecap:round;stroke-linejoin:miter;stroke-miterlimit:4;stroke-dasharray:none;stroke-dashoffset:0;stroke-opacity:1"
       id="path3103-3-7-21-6"
       d="m 185.96036,157.82614 -2.46904,-0.66157 -0.66159,-2.46906 1.80747,-1.80747 2.46906,0.66158 0.66158,2.46905 z" />
    <path
       inkscape:connector-curvature="0"
       style="opacity:1;fill:none;fill-opacity:1;fill-rule:evenodd;stroke:#ffb767;stroke-width:0.16100001;stroke-linecap:round;stroke-linejoin:miter;stroke-miterlimit:4;stroke-dasharray:none;stroke-dashoffset:0;stroke-opacity:1"
       id="path3103-3-7-3"
       d="m 168.85426,162.4097 -2.46905,-0.66158 -0.66158,-2.46906 1.80747,-1.80747 2.46905,0.66158 0.66158,2.46905 z" />
    <path
       inkscape:connector-curvature="0"
       style="opacity:1;fill:none;fill-opacity:1;fill-rule:evenodd;stroke:#ffb767;stroke-width:0.16100001;stroke-linecap:round;stroke-linejoin:miter;stroke-miterlimit:4;stroke-dasharray:none;stroke-dashoffset:0;stroke-opacity:1"
       id="path3103-3-7-2-0"
       d="m 163.43185,167.83211 -2.46906,-0.66158 -0.66158,-2.46905 1.80747,-1.80748 2.46906,0.66159 0.66158,2.46905 z" />
    <path
       inkscape:connector-curvature="0"
       style="opacity:1;fill:none;fill-opacity:1;fill-rule:evenodd;stroke:#ffb767;stroke-width:0.16100001;stroke-linecap:round;stroke-linejoin:miter;stroke-miterlimit:4;stroke-dasharray:none;stroke-dashoffset:0;stroke-opacity:1"
       id="path3103-3-7-21-2"
       d="m 173.13079,161.26381 -2.46905,-0.66158 -0.66159,-2.46906 1.80748,-1.80747 2.46905,0.66159 0.66158,2.46905 z" />
    <path
       inkscape:connector-curvature="0"
       style="opacity:1;fill:none;fill-opacity:1;fill-rule:evenodd;stroke:#ffb767;stroke-width:0.16100001;stroke-linecap:round;stroke-linejoin:miter;stroke-miterlimit:4;stroke-dasharray:none;stroke-dashoffset:0;stroke-opacity:1"
       id="path3103-3-7-39"
       d="m 178.5532,155.84139 -2.46905,-0.66157 -0.66158,-2.46906 1.80747,-1.80747 2.46905,0.66158 0.66159,2.46905 z" />
    <path
       inkscape:connector-curvature="0"
       style="opacity:1;fill:none;fill-opacity:1;fill-rule:evenodd;stroke:#ffb767;stroke-width:0.16100001;stroke-linecap:round;stroke-linejoin:miter;stroke-miterlimit:4;stroke-dasharray:none;stroke-dashoffset:0;stroke-opacity:1"
       id="path3103-3-7-2-3"
       d="m 174.27667,156.98728 -2.46904,-0.66158 -0.66159,-2.46905 1.80747,-1.80747 2.46906,0.66158 0.66158,2.46905 z" />
    <path
       inkscape:connector-curvature="0"
       style="opacity:1;fill:none;fill-opacity:1;fill-rule:evenodd;stroke:#ffb767;stroke-width:0.16100001;stroke-linecap:round;stroke-linejoin:miter;stroke-miterlimit:4;stroke-dasharray:none;stroke-dashoffset:0;stroke-opacity:1"
       id="path3103-3-7-21-3"
       d="m 179.69909,151.56487 -2.46905,-0.66158 -0.66159,-2.46906 1.80748,-1.80747 2.46905,0.66159 0.66158,2.46905 z" />
    <path
       inkscape:connector-curvature="0"
       style="opacity:1;fill:none;fill-opacity:1;fill-rule:evenodd;stroke:#ffb767;stroke-width:0.16100001;stroke-linecap:round;stroke-linejoin:miter;stroke-miterlimit:4;stroke-dasharray:none;stroke-dashoffset:0;stroke-opacity:1"
       id="path3103-3-7-2-5-7"
       d="m 167.70837,166.68623 -2.46905,-0.66159 -0.66158,-2.46905 1.80747,-1.80747 2.46906,0.66158 0.66157,2.46905 z" />
    <path
       inkscape:connector-curvature="0"
       style="opacity:1;fill:none;fill-opacity:1;fill-rule:evenodd;stroke:#ffb767;stroke-width:0.16100001;stroke-linecap:round;stroke-linejoin:miter;stroke-miterlimit:4;stroke-dasharray:none;stroke-dashoffset:0;stroke-opacity:1"
       id="path3103-3-7-2-5-2"
       d="m 175.42257,152.71075 -2.46906,-0.66157 -0.66158,-2.46906 1.80748,-1.80747 2.46904,0.66158 0.66159,2.46905 z" />
    <path
       inkscape:connector-curvature="0"
       style="opacity:1;fill:none;fill-opacity:1;fill-rule:evenodd;stroke:#ffb767;stroke-width:0.16100001;stroke-linecap:round;stroke-linejoin:miter;stroke-miterlimit:4;stroke-dasharray:none;stroke-dashoffset:0;stroke-opacity:1"
       id="path3103-3-7-2-5-3"
       d="m 176.56845,148.43423 -2.46905,-0.66158 -0.66158,-2.46905 1.80747,-1.80747 2.46905,0.66158 0.66159,2.46905 z" />
    <path
       inkscape:connector-curvature="0"
       style="opacity:1;fill:none;fill-opacity:1;fill-rule:evenodd;stroke:#ffb767;stroke-width:0.16100001;stroke-linecap:round;stroke-linejoin:miter;stroke-miterlimit:4;stroke-dasharray:none;stroke-dashoffset:0;stroke-opacity:1"
       id="path3103-3-7-2-5-71"
       d="m 191.38278,152.40373 -2.46905,-0.66158 -0.66158,-2.46905 1.80747,-1.80747 2.46905,0.66157 0.66159,2.46906 z" />
    <path
       inkscape:connector-curvature="0"
       style="opacity:1;fill:none;fill-opacity:1;fill-rule:evenodd;stroke:#ffb767;stroke-width:0.16100001;stroke-linecap:round;stroke-linejoin:miter;stroke-miterlimit:4;stroke-dasharray:none;stroke-dashoffset:0;stroke-opacity:1"
       id="path3103-3-7-2-5-20"
       d="m 193.36753,159.8109 -2.46905,-0.66159 -0.66158,-2.46905 1.80747,-1.80747 2.46905,0.66158 0.66158,2.46905 z" />
    <path
       inkscape:connector-curvature="0"
       style="opacity:1;fill:none;fill-opacity:1;fill-rule:evenodd;stroke:#ffb767;stroke-width:0.16100001;stroke-linecap:round;stroke-linejoin:miter;stroke-miterlimit:4;stroke-dasharray:none;stroke-dashoffset:0;stroke-opacity:1"
       id="path3103-3-7-2-5-4"
       d="m 180.84498,147.28834 -2.46905,-0.66158 -0.66158,-2.46905 1.80747,-1.80747 2.46905,0.66158 0.66158,2.46905 z" />
    <path
       inkscape:connector-curvature="0"
       style="opacity:1;fill:none;fill-opacity:1;fill-rule:evenodd;stroke:#ffb767;stroke-width:0.16100001;stroke-linecap:round;stroke-linejoin:miter;stroke-miterlimit:4;stroke-dasharray:none;stroke-dashoffset:0;stroke-opacity:1"
       id="path3103-3-7-2-5-5"
       d="m 194.51342,155.53437 -2.46905,-0.66158 -0.66159,-2.46905 1.80748,-1.80747 2.46905,0.66157 0.66158,2.46906 z" />
    <path
       inkscape:connector-curvature="0"
       style="opacity:1;fill:none;fill-opacity:1;fill-rule:evenodd;stroke:#ffb767;stroke-width:0.16100001;stroke-linecap:round;stroke-linejoin:miter;stroke-miterlimit:4;stroke-dasharray:none;stroke-dashoffset:0;stroke-opacity:1"
       id="path3103-3-7-2-5-70"
       d="m 181.68384,158.97203 -2.46905,-0.66158 -0.66158,-2.46905 1.80747,-1.80747 2.46905,0.66158 0.66158,2.46905 z" />
    <path
       inkscape:connector-curvature="0"
       style="opacity:1;fill:none;fill-opacity:1;fill-rule:evenodd;stroke:#ffb767;stroke-width:0.16100001;stroke-linecap:round;stroke-linejoin:miter;stroke-miterlimit:4;stroke-dasharray:none;stroke-dashoffset:0;stroke-opacity:1"
       id="path3103-3-7-2-5-8"
       d="m 171.14604,153.85665 -2.46905,-0.66159 -0.66159,-2.46905 1.80748,-1.80747 2.46905,0.66158 0.66158,2.46905 z" />
    <path
       inkscape:connector-curvature="0"
       style="opacity:1;fill:none;fill-opacity:1;fill-rule:evenodd;stroke:#ffb767;stroke-width:0.16100001;stroke-linecap:round;stroke-linejoin:miter;stroke-miterlimit:4;stroke-dasharray:none;stroke-dashoffset:0;stroke-opacity:1"
       id="path3103-3-7-2-5-1"
       d="m 177.71434,144.1577 -2.46905,-0.66157 -0.66158,-2.46906 1.80747,-1.80747 2.46905,0.66158 0.66158,2.46905 z" />
    <path
       inkscape:connector-curvature="0"
       style="opacity:1;fill:none;fill-opacity:1;fill-rule:evenodd;stroke:#ffb767;stroke-width:0.16100001;stroke-linecap:round;stroke-linejoin:miter;stroke-miterlimit:4;stroke-dasharray:none;stroke-dashoffset:0;stroke-opacity:1"
       id="path3103-3-7-2-5-74"
       d="m 185.12151,146.14245 -2.46906,-0.66157 -0.66157,-2.46906 1.80747,-1.80747 2.46904,0.66158 0.66159,2.46905 z" />
    <path
       inkscape:connector-curvature="0"
       style="opacity:1;fill:none;fill-opacity:1;fill-rule:evenodd;stroke:#ffb767;stroke-width:0.16100001;stroke-linecap:round;stroke-linejoin:miter;stroke-miterlimit:4;stroke-dasharray:none;stroke-dashoffset:0;stroke-opacity:1"
       id="path3103-3-7-2-5-12"
       d="m 181.99087,143.01181 -2.46906,-0.66157 -0.66157,-2.46906 1.80747,-1.80747 2.46905,0.66159 0.66158,2.46904 z" />
    <path
       inkscape:connector-curvature="0"
       style="opacity:1;fill:none;fill-opacity:1;fill-rule:evenodd;stroke:#ffb767;stroke-width:0.16100001;stroke-linecap:round;stroke-linejoin:miter;stroke-miterlimit:4;stroke-dasharray:none;stroke-dashoffset:0;stroke-opacity:1"
       id="path3103-3-7-2-5-73"
       d="m 173.43782,145.3036 -2.46906,-0.66159 -0.66158,-2.46905 1.80748,-1.80747 2.46904,0.66158 0.66159,2.46906 z" />
    <path
       inkscape:connector-curvature="0"
       style="opacity:1;fill:none;fill-opacity:1;fill-rule:evenodd;stroke:#ffb767;stroke-width:0.16100001;stroke-linecap:round;stroke-linejoin:miter;stroke-miterlimit:4;stroke-dasharray:none;stroke-dashoffset:0;stroke-opacity:1"
       id="path3103-3-7-2-5-58"
       d="m 174.5837,141.02707 -2.46905,-0.66158 -0.66158,-2.46906 1.80747,-1.80747 2.46906,0.66158 0.66157,2.46906 z" />
    <path
       inkscape:connector-curvature="0"
       style="opacity:1;fill:none;fill-opacity:1;fill-rule:evenodd;stroke:#ffb767;stroke-width:0.16100001;stroke-linecap:round;stroke-linejoin:miter;stroke-miterlimit:4;stroke-dasharray:none;stroke-dashoffset:0;stroke-opacity:1"
       id="path3103-3-7-2-5-60"
       d="m 186.26739,141.86593 -2.46905,-0.66158 -0.66158,-2.46905 1.80747,-1.80748 2.46905,0.66159 0.66159,2.46905 z" />
    <path
       inkscape:connector-curvature="0"
       style="opacity:1;fill:none;fill-opacity:1;fill-rule:evenodd;stroke:#ffb767;stroke-width:0.16100001;stroke-linecap:round;stroke-linejoin:miter;stroke-miterlimit:4;stroke-dasharray:none;stroke-dashoffset:0;stroke-opacity:1"
       id="path3103-3-7-2-5-3-7"
       d="m 160.60824,148.74126 -2.46905,-0.66158 -0.66158,-2.46905 1.80747,-1.80747 2.46906,0.66158 0.66158,2.46905 z" />
    <path
       inkscape:connector-curvature="0"
       style="opacity:1;fill:none;fill-opacity:1;fill-rule:evenodd;stroke:#ffb767;stroke-width:0.16100001;stroke-linecap:round;stroke-linejoin:miter;stroke-miterlimit:4;stroke-dasharray:none;stroke-dashoffset:0;stroke-opacity:1"
       id="path3103-3-7-2-5-4-5"
       d="m 164.88477,147.59537 -2.46905,-0.66158 -0.66157,-2.46905 1.80746,-1.80747 2.46905,0.66158 0.66158,2.46905 z" />
    <path
       inkscape:connector-curvature="0"
       style="opacity:1;fill:none;fill-opacity:1;fill-rule:evenodd;stroke:#ffb767;stroke-width:0.16100001;stroke-linecap:round;stroke-linejoin:miter;stroke-miterlimit:4;stroke-dasharray:none;stroke-dashoffset:0;stroke-opacity:1"
       id="path3103-3-7-2-5-1-0"
       d="m 161.75414,144.46473 -2.46906,-0.66157 -0.66158,-2.46906 1.80747,-1.80747 2.46906,0.66158 0.66158,2.46905 z" />
    <path
       inkscape:connector-curvature="0"
       style="opacity:1;fill:none;fill-opacity:1;fill-rule:evenodd;stroke:#ffb767;stroke-width:0.16100001;stroke-linecap:round;stroke-linejoin:miter;stroke-miterlimit:4;stroke-dasharray:none;stroke-dashoffset:0;stroke-opacity:1"
       id="path3103-3-7-2-5-74-5"
       d="m 169.1613,146.44948 -2.46906,-0.66157 -0.66157,-2.46906 1.80747,-1.80747 2.46904,0.66158 0.66159,2.46905 z" />
    <path
       inkscape:connector-curvature="0"
       style="opacity:1;fill:none;fill-opacity:1;fill-rule:evenodd;stroke:#ffb767;stroke-width:0.16100001;stroke-linecap:round;stroke-linejoin:miter;stroke-miterlimit:4;stroke-dasharray:none;stroke-dashoffset:0;stroke-opacity:1"
       id="path3103-3-7-2-5-12-7"
       d="m 166.03066,143.31884 -2.46905,-0.66157 -0.66158,-2.46906 1.80747,-1.80747 2.46905,0.66159 0.66158,2.46904 z" />
    <path
       inkscape:connector-curvature="0"
       style="opacity:1;fill:none;fill-opacity:1;fill-rule:evenodd;stroke:#ffb767;stroke-width:0.16100001;stroke-linecap:round;stroke-linejoin:miter;stroke-miterlimit:4;stroke-dasharray:none;stroke-dashoffset:0;stroke-opacity:1"
       id="path3103-3-7-2-5-73-6"
       d="m 157.47761,145.61063 -2.46906,-0.66159 -0.66158,-2.46905 1.80748,-1.80747 2.46905,0.66158 0.66158,2.46906 z" />
    <path
       inkscape:connector-curvature="0"
       style="opacity:1;fill:none;fill-opacity:1;fill-rule:evenodd;stroke:#ffb767;stroke-width:0.16100001;stroke-linecap:round;stroke-linejoin:miter;stroke-miterlimit:4;stroke-dasharray:none;stroke-dashoffset:0;stroke-opacity:1"
       id="path3103-3-7-2-5-58-8"
       d="m 158.6235,141.3341 -2.46906,-0.66158 -0.66158,-2.46906 1.80747,-1.80747 2.46906,0.66158 0.66157,2.46906 z" />
    <path
       inkscape:connector-curvature="0"
       style="opacity:1;fill:none;fill-opacity:1;fill-rule:evenodd;stroke:#ffb767;stroke-width:0.16100001;stroke-linecap:round;stroke-linejoin:miter;stroke-miterlimit:4;stroke-dasharray:none;stroke-dashoffset:0;stroke-opacity:1"
       id="path3103-3-7-2-5-60-6"
       d="m 170.30718,142.17296 -2.46905,-0.66158 -0.66158,-2.46905 1.80747,-1.80748 2.46905,0.66159 0.66159,2.46905 z" />
    <path
       inkscape:connector-curvature="0"
       style="opacity:1;fill:none;fill-opacity:1;fill-rule:evenodd;stroke:#ffb767;stroke-width:0.16100001;stroke-linecap:round;stroke-linejoin:miter;stroke-miterlimit:4;stroke-dasharray:none;stroke-dashoffset:0;stroke-opacity:1"
       id="path3103-3-7-2-5-3-9"
       d="m 172.29193,149.58012 -2.46905,-0.66158 -0.66158,-2.46905 1.80747,-1.80747 2.46905,0.66158 0.66159,2.46905 z" />
    <path
       inkscape:connector-curvature="0"
       style="opacity:1;fill:none;fill-opacity:1;fill-rule:evenodd;stroke:#ffb767;stroke-width:0.16100001;stroke-linecap:round;stroke-linejoin:miter;stroke-miterlimit:4;stroke-dasharray:none;stroke-dashoffset:0;stroke-opacity:1"
       id="path3103-3-7-2-5-4-8"
       d="m 163.73887,151.87189 -2.46905,-0.66158 -0.66158,-2.46905 1.80747,-1.80747 2.46905,0.66158 0.66158,2.46905 z" />
    <path
       inkscape:connector-curvature="0"
       style="opacity:1;fill:none;fill-opacity:1;fill-rule:evenodd;stroke:#ffb767;stroke-width:0.16100001;stroke-linecap:round;stroke-linejoin:miter;stroke-miterlimit:4;stroke-dasharray:none;stroke-dashoffset:0;stroke-opacity:1"
       id="path3103-3-7-2-5-1-4"
       d="m 145.79391,144.77176 -2.46905,-0.66157 -0.66158,-2.46906 1.80747,-1.80747 2.46905,0.66158 0.66158,2.46905 z" />
    <path
       inkscape:connector-curvature="0"
       style="opacity:1;fill:none;fill-opacity:1;fill-rule:evenodd;stroke:#ffb767;stroke-width:0.16100001;stroke-linecap:round;stroke-linejoin:miter;stroke-miterlimit:4;stroke-dasharray:none;stroke-dashoffset:0;stroke-opacity:1"
       id="path3103-3-7-2-5-74-3"
       d="m 153.20108,146.75651 -2.46906,-0.66157 -0.66157,-2.46906 1.80747,-1.80747 2.46904,0.66158 0.66159,2.46905 z" />
    <path
       inkscape:connector-curvature="0"
       style="opacity:1;fill:none;fill-opacity:1;fill-rule:evenodd;stroke:#ffb767;stroke-width:0.16100001;stroke-linecap:round;stroke-linejoin:miter;stroke-miterlimit:4;stroke-dasharray:none;stroke-dashoffset:0;stroke-opacity:1"
       id="path3103-3-7-2-5-12-3"
       d="m 150.07044,143.62588 -2.46906,-0.66158 -0.66157,-2.46906 1.80747,-1.80747 2.46905,0.66159 0.66158,2.46904 z" />
    <path
       inkscape:connector-curvature="0"
       style="opacity:1;fill:none;fill-opacity:1;fill-rule:evenodd;stroke:#ffb767;stroke-width:0.16100001;stroke-linecap:round;stroke-linejoin:miter;stroke-miterlimit:4;stroke-dasharray:none;stroke-dashoffset:0;stroke-opacity:1"
       id="path3103-3-7-2-5-73-68"
       d="m 141.51739,145.91766 -2.46906,-0.66159 -0.66158,-2.46905 1.80748,-1.80747 2.46904,0.66158 0.66159,2.46906 z" />
    <path
       inkscape:connector-curvature="0"
       style="opacity:1;fill:none;fill-opacity:1;fill-rule:evenodd;stroke:#ffb767;stroke-width:0.16100001;stroke-linecap:round;stroke-linejoin:miter;stroke-miterlimit:4;stroke-dasharray:none;stroke-dashoffset:0;stroke-opacity:1"
       id="path3103-3-7-2-5-58-1"
       d="m 142.66327,141.64113 -2.46905,-0.66158 -0.66158,-2.46906 1.80747,-1.80747 2.46906,0.66158 0.66157,2.46906 z" />
    <path
       inkscape:connector-curvature="0"
       style="opacity:1;fill:none;fill-opacity:1;fill-rule:evenodd;stroke:#ffb767;stroke-width:0.16100001;stroke-linecap:round;stroke-linejoin:miter;stroke-miterlimit:4;stroke-dasharray:none;stroke-dashoffset:0;stroke-opacity:1"
       id="path3103-3-7-2-5-60-5"
       d="m 154.34696,142.47999 -2.46905,-0.66158 -0.66158,-2.46905 1.80747,-1.80748 2.46905,0.66159 0.66159,2.46905 z" />
    <path
       inkscape:connector-curvature="0"
       style="opacity:1;fill:none;fill-opacity:1;fill-rule:evenodd;stroke:#ffb767;stroke-width:0.16100001;stroke-linecap:round;stroke-linejoin:miter;stroke-miterlimit:4;stroke-dasharray:none;stroke-dashoffset:0;stroke-opacity:1"
       id="path3103-3-7-2-0-0"
       d="m 183.97562,150.41898 -2.46906,-0.66158 -0.66158,-2.46905 1.80747,-1.80748 2.46906,0.66159 0.66158,2.46905 z" />
    <path
       inkscape:connector-curvature="0"
       style="opacity:1;fill:none;fill-opacity:1;fill-rule:evenodd;stroke:#ffb767;stroke-width:0.16100001;stroke-linecap:round;stroke-linejoin:miter;stroke-miterlimit:4;stroke-dasharray:none;stroke-dashoffset:0;stroke-opacity:1"
       id="path3103-3-7-2-0-1"
       d="m 187.10626,153.54962 -2.46906,-0.66158 -0.66158,-2.46905 1.80747,-1.80748 2.46906,0.66159 0.66158,2.46905 z" />
    <path
       inkscape:connector-curvature="0"
       style="opacity:1;fill:none;fill-opacity:1;fill-rule:evenodd;stroke:#ffb767;stroke-width:0.16100001;stroke-linecap:round;stroke-linejoin:miter;stroke-miterlimit:4;stroke-dasharray:none;stroke-dashoffset:0;stroke-opacity:1"
       id="path3103-3-7-2-0-5"
       d="m 189.39804,144.99656 -2.46906,-0.66158 -0.66158,-2.46905 1.80747,-1.80748 2.46906,0.66159 0.66158,2.46905 z" />
    <path
       inkscape:connector-curvature="0"
       style="opacity:1;fill:none;fill-opacity:1;fill-rule:evenodd;stroke:#ffb767;stroke-width:0.16100001;stroke-linecap:round;stroke-linejoin:miter;stroke-miterlimit:4;stroke-dasharray:none;stroke-dashoffset:0;stroke-opacity:1"
       id="path3103-3-7-2-0-3"
       d="m 164.57774,163.55558 -2.46906,-0.66158 -0.66158,-2.46905 1.80747,-1.80748 2.46906,0.66159 0.66158,2.46905 z" />
    <path
       inkscape:connector-curvature="0"
       style="opacity:1;fill:none;fill-opacity:1;fill-rule:evenodd;stroke:#ffb767;stroke-width:0.16100001;stroke-linecap:round;stroke-linejoin:miter;stroke-miterlimit:4;stroke-dasharray:none;stroke-dashoffset:0;stroke-opacity:1"
       id="path3103-3-7-2-0-4"
       d="m 159.15532,168.978 -2.46906,-0.66158 -0.66158,-2.46905 1.80747,-1.80748 2.46906,0.66159 0.66158,2.46905 z" />
    <path
       inkscape:connector-curvature="0"
       style="opacity:1;fill:none;fill-opacity:1;fill-rule:evenodd;stroke:#ffb767;stroke-width:0.16100001;stroke-linecap:round;stroke-linejoin:miter;stroke-miterlimit:4;stroke-dasharray:none;stroke-dashoffset:0;stroke-opacity:1"
       id="path3103-3-7-2-0-7"
       d="m 156.02468,165.84737 -2.46906,-0.66158 -0.66158,-2.46905 1.80747,-1.80748 2.46906,0.66159 0.66158,2.46905 z" />
    <path
       inkscape:connector-curvature="0"
       style="opacity:1;fill:none;fill-opacity:1;fill-rule:evenodd;stroke:#ffb767;stroke-width:0.16100001;stroke-linecap:round;stroke-linejoin:miter;stroke-miterlimit:4;stroke-dasharray:none;stroke-dashoffset:0;stroke-opacity:1"
       id="path3103-3-7-2-0-77"
       d="m 151.74815,166.99326 -2.46906,-0.66158 -0.66158,-2.46905 1.80747,-1.80748 2.46906,0.66159 0.66158,2.46905 z" />
    <path
       inkscape:connector-curvature="0"
       style="opacity:1;fill:none;fill-opacity:1;fill-rule:evenodd;stroke:#ffb767;stroke-width:0.16100001;stroke-linecap:round;stroke-linejoin:miter;stroke-miterlimit:4;stroke-dasharray:none;stroke-dashoffset:0;stroke-opacity:1"
       id="path3103-3-7-2-0-02"
       d="m 152.89404,162.71673 -2.46906,-0.66158 -0.66158,-2.46905 1.80747,-1.80748 2.46906,0.66159 0.66158,2.46905 z" />
    <path
       inkscape:connector-curvature="0"
       style="opacity:1;fill:none;fill-opacity:1;fill-rule:evenodd;stroke:#ffb767;stroke-width:0.16100001;stroke-linecap:round;stroke-linejoin:miter;stroke-miterlimit:4;stroke-dasharray:none;stroke-dashoffset:0;stroke-opacity:1"
       id="path3103-3-7-2-0-48"
       d="m 160.30121,164.70147 -2.46906,-0.66158 -0.66158,-2.46905 1.80747,-1.80748 2.46906,0.66159 0.66158,2.46905 z" />
    <path
       inkscape:connector-curvature="0"
       style="opacity:1;fill:none;fill-opacity:1;fill-rule:evenodd;stroke:#ffb767;stroke-width:0.16100001;stroke-linecap:round;stroke-linejoin:miter;stroke-miterlimit:4;stroke-dasharray:none;stroke-dashoffset:0;stroke-opacity:1"
       id="path3103-3-7-2-0-2"
       d="m 157.17057,161.57083 -2.46906,-0.66158 -0.66158,-2.46905 1.80747,-1.80748 2.46906,0.66159 0.66158,2.46905 z" />
  </g>
</svg>
