<?xml version="1.0" encoding="UTF-8" standalone="no"?>
<svg
   xmlns:dc="http://purl.org/dc/elements/1.1/"
   xmlns:cc="http://creativecommons.org/ns#"
   xmlns:rdf="http://www.w3.org/1999/02/22-rdf-syntax-ns#"
   xmlns:svg="http://www.w3.org/2000/svg"
   xmlns="http://www.w3.org/2000/svg"
   id="svg2178"
   version="1.1"
   viewBox="0 0 12.7 12.7"
   height="48"
   width="48">
  <defs
     id="defs2172" />
  <metadata
     id="metadata2175">
    <rdf:RDF>
      <cc:Work
         rdf:about="">
        <dc:format>image/svg+xml</dc:format>
        <dc:type
           rdf:resource="http://purl.org/dc/dcmitype/StillImage" />
        <dc:title></dc:title>
      </cc:Work>
    </rdf:RDF>
  </metadata>
  <g
     transform="translate(0,-284.3)"
     id="layer1">
    <path
       d="m 0.11870099,296.05001 -0.42198542,-0.11307 -0.11306995,-0.42198 0.30891439,-0.30892 0.42198427,0.11307 0.11307103,0.42199 z"
       id="path3103-3-7"
       style="opacity:1;fill:none;fill-opacity:0.10232556;fill-rule:evenodd;stroke:#ff9500;stroke-width:0.01168669;stroke-linecap:round;stroke-linejoin:miter;stroke-miterlimit:4;stroke-dasharray:none;stroke-dashoffset:0;stroke-opacity:1" />
    <path
       d="m 0.65375635,296.58506 -0.42198542,-0.11307 -0.11306994,-0.42198 0.30891432,-0.30891 0.42198428,0.11307 0.11307103,0.42198 z"
       id="path3103-3-7-2"
       style="opacity:1;fill:none;fill-opacity:0.10232556;fill-rule:evenodd;stroke:#ff9500;stroke-width:0.01168669;stroke-linecap:round;stroke-linejoin:miter;stroke-miterlimit:4;stroke-dasharray:none;stroke-dashoffset:0;stroke-opacity:1" />
    <path
       d="m 0.84960075,295.85417 -0.42198544,-0.11307 -0.11306987,-0.42199 0.30891431,-0.30892 0.42198435,0.11307 0.113071,0.42199 z"
       id="path3103-3-7-21"
       style="opacity:1;fill:none;fill-opacity:0.10232556;fill-rule:evenodd;stroke:#ff9500;stroke-width:0.01168669;stroke-linecap:round;stroke-linejoin:miter;stroke-miterlimit:4;stroke-dasharray:none;stroke-dashoffset:0;stroke-opacity:1" />
    <path
       d="m 1.9714391,294.19053 -0.4212363,-0.10707 -0.1130699,-0.42199 0.3089142,-0.30892 0.4219856,0.11308 0.1130699,0.42198 z"
       id="path3103-3-7-1"
       style="opacity:1;fill:none;fill-opacity:0.10232556;fill-rule:evenodd;stroke:#ff9500;stroke-width:0.01168669;stroke-linecap:round;stroke-linejoin:miter;stroke-miterlimit:4;stroke-dasharray:none;stroke-dashoffset:0;stroke-opacity:1" />
    <path
       d="m 0.45791307,297.31597 -0.42198543,-0.11307 -0.11306994,-0.42199 0.30891439,-0.30892 0.42198426,0.11307 0.11307104,0.42199 z"
       id="path3103-3-7-21-8"
       style="opacity:1;fill:none;fill-opacity:0.10232556;fill-rule:evenodd;stroke:#ff9500;stroke-width:0.01168669;stroke-linecap:round;stroke-linejoin:miter;stroke-miterlimit:4;stroke-dasharray:none;stroke-dashoffset:0;stroke-opacity:1" />
    <path
       d="m 2.1680314,293.46562 -0.4219854,-0.11307 -0.1130699,-0.42198 0.3089144,-0.30891 0.4219854,0.11307 0.1130698,0.42198 z"
       id="path3103-3-7-5"
       style="opacity:1;fill:none;fill-opacity:0.10232556;fill-rule:evenodd;stroke:#ff9500;stroke-width:0.01168669;stroke-linecap:round;stroke-linejoin:miter;stroke-miterlimit:4;stroke-dasharray:none;stroke-dashoffset:0;stroke-opacity:1" />
    <path
       d="m 1.4371318,293.66147 -0.4219856,-0.11307 -0.0164087,-0.0612 -0.007044,-0.0263 -0.0896169,-0.33446 0.30891439,-0.30891 0.4219854,0.11307 0.1130698,0.42198 z"
       id="path3103-3-7-2-9"
       style="opacity:1;fill:none;fill-opacity:0.10232556;fill-rule:evenodd;stroke:#ff9500;stroke-width:0.01168669;stroke-linecap:round;stroke-linejoin:miter;stroke-miterlimit:4;stroke-dasharray:none;stroke-dashoffset:0;stroke-opacity:1" />
    <path
       d="m -0.07714346,296.78091 -0.42198538,-0.11307 -0.1130699,-0.42199 0.30891431,-0.30891 0.42198542,0.11307 0.11306994,0.42198 z"
       id="path3103-3-7-21-9"
       style="opacity:1;fill:none;fill-opacity:0.10232556;fill-rule:evenodd;stroke:#ff9500;stroke-width:0.01168669;stroke-linecap:round;stroke-linejoin:miter;stroke-miterlimit:4;stroke-dasharray:none;stroke-dashoffset:0;stroke-opacity:1" />
    <path
       d="m 0.31454428,295.31911 -0.4219855,-0.11307 -0.11306987,-0.42199 0.30891432,-0.30891 0.42198542,0.11307 0.11306994,0.42198 z"
       id="path3103-3-7-24"
       style="opacity:1;fill:none;fill-opacity:0.10232556;fill-rule:evenodd;stroke:#ff9500;stroke-width:0.01168669;stroke-linecap:round;stroke-linejoin:miter;stroke-miterlimit:4;stroke-dasharray:none;stroke-dashoffset:0;stroke-opacity:1" />
    <path
       d="m 0.36701863,292.59136 -0.42198535,-0.11307 -0.11306995,-0.42199 0.30891432,-0.30891 0.42198543,0.11307 0.11306994,0.42198 z"
       id="path3103-3-7-2-7"
       style="opacity:1;fill:none;fill-opacity:0.10232556;fill-rule:evenodd;stroke:#ff9500;stroke-width:0.01168669;stroke-linecap:round;stroke-linejoin:miter;stroke-miterlimit:4;stroke-dasharray:none;stroke-dashoffset:0;stroke-opacity:1" />
    <path
       d="m 1.0454441,295.12326 -0.42198551,-0.11307 -0.11306994,-0.42198 0.30891434,-0.30891 0.42198541,0.11307 0.1130699,0.42198 z"
       id="path3103-3-7-21-91"
       style="opacity:1;fill:none;fill-opacity:0.10232556;fill-rule:evenodd;stroke:#ff9500;stroke-width:0.01168669;stroke-linecap:round;stroke-linejoin:miter;stroke-miterlimit:4;stroke-dasharray:none;stroke-dashoffset:0;stroke-opacity:1" />
    <path
       d="m -0.22051109,294.78405 -0.42198425,-0.11307 -0.1130711,-0.42198 0.3089143,-0.30891 0.4219855,0.11306 0.11306987,0.42199 z"
       id="path3103-3-7-23"
       style="opacity:1;fill:none;fill-opacity:0.10232556;fill-rule:evenodd;stroke:#ff9500;stroke-width:0.01168669;stroke-linecap:round;stroke-linejoin:miter;stroke-miterlimit:4;stroke-dasharray:none;stroke-dashoffset:0;stroke-opacity:1" />
    <path
       d="m 1.8288193,292.19967 -0.4219843,-0.11307 -0.113071,-0.42199 0.3089144,-0.30891 0.4219855,0.11307 0.1130697,0.42198 z"
       id="path3103-3-7-2-1"
       style="opacity:1;fill:none;fill-opacity:0.10232556;fill-rule:evenodd;stroke:#ff9500;stroke-width:0.01168669;stroke-linecap:round;stroke-linejoin:miter;stroke-miterlimit:4;stroke-dasharray:none;stroke-dashoffset:0;stroke-opacity:1" />
    <path
       d="m -0.02466787,294.05315 -0.42198427,-0.11307 -0.113071,-0.42198 0.30891429,-0.30892 0.42198542,0.11307 0.11306995,0.42199 z"
       id="path3103-3-7-21-7"
       style="opacity:1;fill:none;fill-opacity:0.10232556;fill-rule:evenodd;stroke:#ff9500;stroke-width:0.01168669;stroke-linecap:round;stroke-linejoin:miter;stroke-miterlimit:4;stroke-dasharray:none;stroke-dashoffset:0;stroke-opacity:1" />
    <path
       d="m 1.632975,292.93057 -0.4219843,-0.11307 -0.113071,-0.42198 0.3089142,-0.30892 0.4219854,0.11307 0.11307,0.42199 z"
       id="path3103-3-7-2-5"
       style="opacity:1;fill:none;fill-opacity:0.10232556;fill-rule:evenodd;stroke:#ff9500;stroke-width:0.01168669;stroke-linecap:round;stroke-linejoin:miter;stroke-miterlimit:4;stroke-dasharray:none;stroke-dashoffset:0;stroke-opacity:1" />
    <path
       d="m 2.0246627,291.46877 -0.4219843,-0.11307 -0.1130712,-0.42198 0.3089144,-0.30892 0.4219854,0.11307 0.11307,0.42199 z"
       id="path3103-3-7-21-6"
       style="opacity:1;fill:none;fill-opacity:0.10232556;fill-rule:evenodd;stroke:#ff9500;stroke-width:0.01168669;stroke-linecap:round;stroke-linejoin:miter;stroke-miterlimit:4;stroke-dasharray:none;stroke-dashoffset:0;stroke-opacity:1" />
    <path
       d="m 1.0979183,292.39552 -0.42198412,-0.11307 -0.1130711,-0.42199 0.30891441,-0.30892 0.42198531,0.11307 0.1130699,0.42199 z"
       id="path3103-3-7-3"
       style="opacity:1;fill:none;fill-opacity:0.10232556;fill-rule:evenodd;stroke:#ff9500;stroke-width:0.01168669;stroke-linecap:round;stroke-linejoin:miter;stroke-miterlimit:4;stroke-dasharray:none;stroke-dashoffset:0;stroke-opacity:1" />
    <path
       d="m 0.56286308,291.86046 -0.42198543,-0.11307 -0.1130711,-0.42199 0.30891439,-0.30891 0.42198535,0.11307 0.1130712,0.42198 z"
       id="path3103-3-7-2-0"
       style="opacity:1;fill:none;fill-opacity:0.10232556;fill-rule:evenodd;stroke:#ff9500;stroke-width:0.01168669;stroke-linecap:round;stroke-linejoin:miter;stroke-miterlimit:4;stroke-dasharray:none;stroke-dashoffset:0;stroke-opacity:1" />
    <path
       d="m -0.16803667,292.0563 -0.42198427,-0.11307 -0.1130711,-0.42198 0.30891433,-0.30892 0.42198542,0.11307 0.11306994,0.42199 z"
       id="path3103-3-7-21-2"
       style="opacity:1;fill:none;fill-opacity:0.10232556;fill-rule:evenodd;stroke:#ff9500;stroke-width:0.01168669;stroke-linecap:round;stroke-linejoin:miter;stroke-miterlimit:4;stroke-dasharray:none;stroke-dashoffset:0;stroke-opacity:1" />
    <path
       d="M 0.75870629,291.12956 0.3367221,291.01649 0.223651,290.5945 l 0.30891432,-0.30891 0.42198544,0.11307 0.11307104,0.42198 z"
       id="path3103-3-7-39"
       style="opacity:1;fill:none;fill-opacity:0.10232556;fill-rule:evenodd;stroke:#ff9500;stroke-width:0.01168669;stroke-linecap:round;stroke-linejoin:miter;stroke-miterlimit:4;stroke-dasharray:none;stroke-dashoffset:0;stroke-opacity:1" />
    <path
       d="m 0.02780655,291.3254 -0.42198426,-0.11307 -0.11307103,-0.42198 0.30891431,-0.30892 0.42198543,0.11307 0.1130711,0.42199 z"
       id="path3103-3-7-2-3"
       style="opacity:1;fill:none;fill-opacity:0.10232556;fill-rule:evenodd;stroke:#ff9500;stroke-width:0.01168669;stroke-linecap:round;stroke-linejoin:miter;stroke-miterlimit:4;stroke-dasharray:none;stroke-dashoffset:0;stroke-opacity:1" />
    <path
       d="m 0.95455076,290.39866 -0.42198544,-0.11307 -0.11307111,-0.42199 0.30891555,-0.30891 0.42198424,0.11307 0.1130712,0.42199 z"
       id="path3103-3-7-21-3"
       style="opacity:1;fill:none;fill-opacity:0.10232556;fill-rule:evenodd;stroke:#ff9500;stroke-width:0.01168669;stroke-linecap:round;stroke-linejoin:miter;stroke-miterlimit:4;stroke-dasharray:none;stroke-dashoffset:0;stroke-opacity:1" />
    <path
       d="m 0.90207518,293.12641 -0.42198429,-0.11307 -0.11307103,-0.42198 0.30891432,-0.30891 0.42198552,0.11307 0.1130699,0.42198 z"
       id="path3103-3-7-2-5-7"
       style="opacity:1;fill:none;fill-opacity:0.10232556;fill-rule:evenodd;stroke:#ff9500;stroke-width:0.01168669;stroke-linecap:round;stroke-linejoin:miter;stroke-miterlimit:4;stroke-dasharray:none;stroke-dashoffset:0;stroke-opacity:1" />
    <path
       d="m 0.223651,290.5945 -0.42198543,-0.11307 -0.1130711,-0.42198 0.30891555,-0.30892 0.42198419,0.11307 0.11307111,0.42199 z"
       id="path3103-3-7-2-5-2"
       style="opacity:1;fill:none;fill-opacity:0.10232556;fill-rule:evenodd;stroke:#ff9500;stroke-width:0.01168669;stroke-linecap:round;stroke-linejoin:miter;stroke-miterlimit:4;stroke-dasharray:none;stroke-dashoffset:0;stroke-opacity:1" />
    <path
       d="m 0.41949421,289.8636 -0.42198542,-0.11307 -0.11306987,-0.42198 0.30891432,-0.30892 0.42198426,0.11307 0.1130711,0.42199 z"
       id="path3103-3-7-2-5-3"
       style="opacity:1;fill:none;fill-opacity:0.10232556;fill-rule:evenodd;stroke:#ff9500;stroke-width:0.01168669;stroke-linecap:round;stroke-linejoin:miter;stroke-miterlimit:4;stroke-dasharray:none;stroke-dashoffset:0;stroke-opacity:1" />
    <path
       d="m 0.17117541,293.32225 -0.42198426,-0.11307 -0.1130711,-0.42198 0.30891439,-0.30892 0.42198542,0.11307 0.11307103,0.42199 z"
       id="path3103-3-7-2-5-71"
       style="opacity:1;fill:none;fill-opacity:0.10232556;fill-rule:evenodd;stroke:#ff9500;stroke-width:0.01168669;stroke-linecap:round;stroke-linejoin:miter;stroke-miterlimit:4;stroke-dasharray:none;stroke-dashoffset:0;stroke-opacity:1" />
    <path
       d="m 0.51038865,294.58821 -0.42198426,-0.11307 -0.11307103,-0.42198 0.30891432,-0.30892 0.42198542,0.11307 0.11306989,0.42199 z"
       id="path3103-3-7-2-5-20"
       style="opacity:1;fill:none;fill-opacity:0.10232556;fill-rule:evenodd;stroke:#ff9500;stroke-width:0.01168669;stroke-linecap:round;stroke-linejoin:miter;stroke-miterlimit:4;stroke-dasharray:none;stroke-dashoffset:0;stroke-opacity:1" />
    <path
       d="m 1.150394,289.66776 -0.4219854,-0.11307 -0.11306994,-0.42199 0.30891441,-0.30891 0.42198423,0.11307 0.113071,0.42198 z"
       id="path3103-3-7-2-5-4"
       style="opacity:1;fill:none;fill-opacity:0.10232556;fill-rule:evenodd;stroke:#ff9500;stroke-width:0.01168669;stroke-linecap:round;stroke-linejoin:miter;stroke-miterlimit:4;stroke-dasharray:none;stroke-dashoffset:0;stroke-opacity:1" />
    <path
       d="m 0.70623194,293.85731 -0.42198426,-0.11307 -0.11307111,-0.42199 0.30891432,-0.30891 0.42198544,0.11307 0.11306987,0.42199 z"
       id="path3103-3-7-2-5-5"
       style="opacity:1;fill:none;fill-opacity:0.10232556;fill-rule:evenodd;stroke:#ff9500;stroke-width:0.01168669;stroke-linecap:round;stroke-linejoin:miter;stroke-miterlimit:4;stroke-dasharray:none;stroke-dashoffset:0;stroke-opacity:1" />
    <path
       d="m 1.2937628,291.66461 -0.42198415,-0.11307 -0.11307113,-0.42198 0.30891428,-0.30891 0.4219854,0.11307 0.1130701,0.42198 z"
       id="path3103-3-7-2-5-70"
       style="opacity:1;fill:none;fill-opacity:0.10232556;fill-rule:evenodd;stroke:#ff9500;stroke-width:0.01168669;stroke-linecap:round;stroke-linejoin:miter;stroke-miterlimit:4;stroke-dasharray:none;stroke-dashoffset:0;stroke-opacity:1" />
    <path
       d="m -0.50724874,290.79035 -0.4219854,-0.11308 -0.11307106,-0.42198 0.30891546,-0.30891 0.42198421,0.11307 0.1130711,0.42198 z"
       id="path3103-3-7-2-5-8"
       style="opacity:1;fill:none;fill-opacity:0.10232556;fill-rule:evenodd;stroke:#ff9500;stroke-width:0.01168669;stroke-linecap:round;stroke-linejoin:miter;stroke-miterlimit:4;stroke-dasharray:none;stroke-dashoffset:0;stroke-opacity:1" />
    <path
       d="m 0.6153375,289.1327 -0.42198542,-0.11307 -0.11306995,-0.42198 0.30891432,-0.30891 0.42198426,0.11307 0.1130712,0.42198 z"
       id="path3103-3-7-2-5-1"
       style="opacity:1;fill:none;fill-opacity:0.10232556;fill-rule:evenodd;stroke:#ff9500;stroke-width:0.01168669;stroke-linecap:round;stroke-linejoin:miter;stroke-miterlimit:4;stroke-dasharray:none;stroke-dashoffset:0;stroke-opacity:1" />
    <path
       d="m 1.8812938,289.47192 -0.4219855,-0.11307 -0.1130699,-0.42199 0.3089145,-0.30891 0.4219842,0.11307 0.113071,0.42198 z"
       id="path3103-3-7-2-5-74"
       style="opacity:1;fill:none;fill-opacity:0.10232556;fill-rule:evenodd;stroke:#ff9500;stroke-width:0.01168669;stroke-linecap:round;stroke-linejoin:miter;stroke-miterlimit:4;stroke-dasharray:none;stroke-dashoffset:0;stroke-opacity:1" />
    <path
       d="m 1.3462373,288.93686 -0.42198539,-0.11307 -0.11306996,-0.42198 0.30891425,-0.30892 0.4219843,0.11307 0.1130712,0.42199 z"
       id="path3103-3-7-2-5-12"
       style="opacity:1;fill:none;fill-opacity:0.10232556;fill-rule:evenodd;stroke:#ff9500;stroke-width:0.01168669;stroke-linecap:round;stroke-linejoin:miter;stroke-miterlimit:4;stroke-dasharray:none;stroke-dashoffset:0;stroke-opacity:1" />
    <path
       d="m -0.11556224,289.32855 -0.4219854,-0.11308 -0.1130699,-0.42198 0.30891425,-0.30891 0.42198426,0.11307 0.11307111,0.42198 z"
       id="path3103-3-7-2-5-73"
       style="opacity:1;fill:none;fill-opacity:0.10232556;fill-rule:evenodd;stroke:#ff9500;stroke-width:0.01168669;stroke-linecap:round;stroke-linejoin:miter;stroke-miterlimit:4;stroke-dasharray:none;stroke-dashoffset:0;stroke-opacity:1" />
    <path
       d="m 0.08028097,288.59765 -0.42198542,-0.11307 -0.11306987,-0.42199 0.30891432,-0.30892 0.42198542,0.11308 0.11306987,0.42199 z"
       id="path3103-3-7-2-5-58"
       style="opacity:1;fill:none;fill-opacity:0.10232556;fill-rule:evenodd;stroke:#ff9500;stroke-width:0.01168669;stroke-linecap:round;stroke-linejoin:miter;stroke-miterlimit:4;stroke-dasharray:none;stroke-dashoffset:0;stroke-opacity:1" />
    <path
       d="m 2.0771371,288.74102 -0.4219854,-0.11307 -0.11307,-0.42199 0.3089144,-0.30891 0.4219842,0.11307 0.113071,0.42198 z"
       id="path3103-3-7-2-5-60"
       style="opacity:1;fill:none;fill-opacity:0.10232556;fill-rule:evenodd;stroke:#ff9500;stroke-width:0.01168669;stroke-linecap:round;stroke-linejoin:miter;stroke-miterlimit:4;stroke-dasharray:none;stroke-dashoffset:0;stroke-opacity:1" />
    <path
       d="m 1.007024,287.67091 -0.42198534,-0.11307 -0.11306995,-0.42199 0.30891434,-0.30891 0.42198535,0.11307 0.11307,0.42198 z"
       id="path3103-3-7-2-7-5"
       style="opacity:1;fill:none;fill-opacity:0.10232556;fill-rule:evenodd;stroke:#ff9500;stroke-width:0.01168669;stroke-linecap:round;stroke-linejoin:miter;stroke-miterlimit:4;stroke-dasharray:none;stroke-dashoffset:0;stroke-opacity:1" />
    <path
       d="m 0.47196871,287.13585 -0.42198428,-0.11307 -0.11307109,-0.42198 0.30891433,-0.30892 0.42198548,0.11307 0.1130699,0.42199 z"
       id="path3103-3-7-21-2-6"
       style="opacity:1;fill:none;fill-opacity:0.10232556;fill-rule:evenodd;stroke:#ff9500;stroke-width:0.01168669;stroke-linecap:round;stroke-linejoin:miter;stroke-miterlimit:4;stroke-dasharray:none;stroke-dashoffset:0;stroke-opacity:1" />
    <path
       d="m 0.66781195,286.40495 -0.42198428,-0.11307 -0.11307104,-0.42198 0.30891432,-0.30892 0.4219854,0.11307 0.1130711,0.42199 z"
       id="path3103-3-7-2-3-6"
       style="opacity:1;fill:none;fill-opacity:0.10232556;fill-rule:evenodd;stroke:#ff9500;stroke-width:0.01168669;stroke-linecap:round;stroke-linejoin:miter;stroke-miterlimit:4;stroke-dasharray:none;stroke-dashoffset:0;stroke-opacity:1" />
    <path
       d="m 0.86365635,285.67405 -0.4219854,-0.11307 -0.11307109,-0.42198 0.30891559,-0.30892 0.42198405,0.11307 0.1130712,0.42199 z"
       id="path3103-3-7-2-5-2-9"
       style="opacity:1;fill:none;fill-opacity:0.10232556;fill-rule:evenodd;stroke:#ff9500;stroke-width:0.01168669;stroke-linecap:round;stroke-linejoin:miter;stroke-miterlimit:4;stroke-dasharray:none;stroke-dashoffset:0;stroke-opacity:1" />
    <path
       d="m 1.0594995,284.94315 -0.42198535,-0.11307 -0.11306984,-0.42198 0.30891434,-0.30892 0.42198425,0.11307 0.1130712,0.42199 z"
       id="path3103-3-7-2-5-3-8"
       style="opacity:1;fill:none;fill-opacity:0.10232556;fill-rule:evenodd;stroke:#ff9500;stroke-width:0.01168669;stroke-linecap:round;stroke-linejoin:miter;stroke-miterlimit:4;stroke-dasharray:none;stroke-dashoffset:0;stroke-opacity:1" />
    <path
       d="m 0.81118075,288.4018 -0.42198421,-0.11307 -0.11307112,-0.42198 0.3089144,-0.30892 0.42198548,0.11307 0.1130709,0.42199 z"
       id="path3103-3-7-2-5-71-0"
       style="opacity:1;fill:none;fill-opacity:0.10232556;fill-rule:evenodd;stroke:#ff9500;stroke-width:0.01168669;stroke-linecap:round;stroke-linejoin:miter;stroke-miterlimit:4;stroke-dasharray:none;stroke-dashoffset:0;stroke-opacity:1" />
    <path
       d="m 0.13275663,285.8699 -0.42198539,-0.11308 -0.11307106,-0.42198 0.30891546,-0.30891 0.42198422,0.11307 0.11307109,0.42198 z"
       id="path3103-3-7-2-5-8-3"
       style="opacity:1;fill:none;fill-opacity:0.10232556;fill-rule:evenodd;stroke:#ff9500;stroke-width:0.01168669;stroke-linecap:round;stroke-linejoin:miter;stroke-miterlimit:4;stroke-dasharray:none;stroke-dashoffset:0;stroke-opacity:1" />
    <path
       d="m 1.2028685,286.94001 -0.42198539,-0.11308 -0.1130699,-0.42198 0.30891424,-0.30891 0.42198425,0.11307 0.1130711,0.42198 z"
       id="path3103-3-7-2-5-73-0"
       style="opacity:1;fill:none;fill-opacity:0.10232556;fill-rule:evenodd;stroke:#ff9500;stroke-width:0.01168669;stroke-linecap:round;stroke-linejoin:miter;stroke-miterlimit:4;stroke-dasharray:none;stroke-dashoffset:0;stroke-opacity:1" />
    <path
       d="m 0.27612541,287.86674 -0.42198541,-0.11307 -0.11306987,-0.42199 0.30891432,-0.30892 0.42198546,0.11308 0.11306975,0.42199 z"
       id="path3103-3-7-2-5-58-4"
       style="opacity:1;fill:none;fill-opacity:0.10232556;fill-rule:evenodd;stroke:#ff9500;stroke-width:0.01168669;stroke-linecap:round;stroke-linejoin:miter;stroke-miterlimit:4;stroke-dasharray:none;stroke-dashoffset:0;stroke-opacity:1" />
    <path
       d="m 1.3987117,286.20911 -0.42198425,-0.11307 -0.113071,-0.42198 0.30891425,-0.30892 0.4219854,0.11307 0.11307,0.42199 z"
       id="path3103-3-7-2-5-33"
       style="opacity:1;fill:none;fill-opacity:0.10232556;fill-rule:evenodd;stroke:#ff9500;stroke-width:0.01168669;stroke-linecap:round;stroke-linejoin:miter;stroke-miterlimit:4;stroke-dasharray:none;stroke-dashoffset:0;stroke-opacity:1" />
    <path
       d="m 1.594555,285.47821 -0.4219843,-0.11307 -0.113071,-0.42198 0.3089142,-0.30892 0.4219854,0.11307 0.11307,0.42199 z"
       id="path3103-3-7-2-5-26"
       style="opacity:1;fill:none;fill-opacity:0.10232556;fill-rule:evenodd;stroke:#ff9500;stroke-width:0.01168669;stroke-linecap:round;stroke-linejoin:miter;stroke-miterlimit:4;stroke-dasharray:none;stroke-dashoffset:0;stroke-opacity:1" />
    <path
       d="m 0.32859994,285.139 -0.4219843,-0.11307 -0.113071,-0.42198 0.30891421,-0.30892 0.42198539,0.11307 0.11307,0.42199 z"
       id="path3103-3-7-2-5-9"
       style="opacity:1;fill:none;fill-opacity:0.10232556;fill-rule:evenodd;stroke:#ff9500;stroke-width:0.01168669;stroke-linecap:round;stroke-linejoin:miter;stroke-miterlimit:4;stroke-dasharray:none;stroke-dashoffset:0;stroke-opacity:1" />
    <path
       d="m 1.7379227,287.47506 -0.4219843,-0.11307 -0.113071,-0.42198 0.3089142,-0.30892 0.4219854,0.11307 0.11307,0.42199 z"
       id="path3103-3-7-2-5-23"
       style="opacity:1;fill:none;fill-opacity:0.10232556;fill-rule:evenodd;stroke:#ff9500;stroke-width:0.01168669;stroke-linecap:round;stroke-linejoin:miter;stroke-miterlimit:4;stroke-dasharray:none;stroke-dashoffset:0;stroke-opacity:1" />
    <path
       d="m 1.3846561,296.38922 -0.4219843,-0.11307 -0.11307096,-0.42198 0.30891426,-0.30892 0.4219853,0.11307 0.11307,0.42199 z"
       id="path3103-3-7-2-5-6"
       style="opacity:1;fill:none;fill-opacity:0.10232556;fill-rule:evenodd;stroke:#ff9500;stroke-width:0.01168669;stroke-linecap:round;stroke-linejoin:miter;stroke-miterlimit:4;stroke-dasharray:none;stroke-dashoffset:0;stroke-opacity:1" />
  </g>
</svg>
